<svg xmlns="http://www.w3.org/2000/svg" role="img" aria-hidden="true" viewBox="0 0 320 200" fill="none"><ellipse cx="160" cy="182" rx="100" ry="7" fill="#ffe4e6"/><circle cx="160" cy="100" r="80" fill="#fff1f2"/><g transform="rotate(-16 118 100)"><rect x="80" y="48" width="76" height="104" rx="10" fill="#fff1f2" stroke="#fecdd3" stroke-width="3"/></g><g transform="rotate(14 204 100)"><rect x="166" y="48" width="76" height="104" rx="10" fill="#fff1f2" stroke="#fecdd3" stroke-width="3"/></g><g><rect x="122" y="42" width="76" height="112" rx="12" fill="#fff" stroke="#fda4af" stroke-width="3"/><rect x="134" y="54" width="52" height="42" rx="7" fill="#ffe4e6"/><path transform="translate(160 72) scale(1.2)" d="M0 10C-12 2-11-7-5.5-7-2-7 0-5 0-3 0-5 2-7 5.5-7 11-7 12 2 0 10z" fill="#f43f5e" /><path d="M134 110h52M134 122h34" stroke="#fecdd3" stroke-width="4" stroke-linecap="round"/></g><g stroke="#475569" stroke-width="3.5" stroke-linecap="round" stroke-linejoin="round"><rect x="146" y="130" width="28" height="16" rx="8" fill="#fff"/><rect x="164" y="140" width="28" height="16" rx="8" fill="#fff" transform="rotate(-20 178 148)"/></g><path transform="translate(252 60) scale(1.3)" d="M0 10C-12 2-11-7-5.5-7-2-7 0-5 0-3 0-5 2-7 5.5-7 11-7 12 2 0 10z" fill="#fda4af" /><path transform="translate(64 64) scale(0.9)" d="M0 10C-12 2-11-7-5.5-7-2-7 0-5 0-3 0-5 2-7 5.5-7 11-7 12 2 0 10z" fill="#f43f5e" /><path d="M258 123L260.7 129.3 267 132 260.7 134.7 258 141 255.3 134.7 249 132 255.3 129.3z" fill="#fbbf24"/><path d="M60 130L61.8 134.2 66 136 61.8 137.8 60 142 58.2 137.8 54 136 58.2 134.2z" fill="#fbbf24"/></svg>