<svg xmlns="http://www.w3.org/2000/svg" role="img" aria-hidden="true" viewBox="0 0 400 240" fill="none"><defs><linearGradient id="bg" x1="0" y1="0" x2="400" y2="240" gradientUnits="userSpaceOnUse"><stop stop-color="#38bdf8"/><stop offset="0.5" stop-color="#d946ef"/><stop offset="1" stop-color="#fbbf24"/></linearGradient></defs><rect width="400" height="240" fill="url(#bg)"/><rect x="140" y="118" width="120" height="80" rx="10" fill="#f43f5e"/><rect x="184" y="118" width="32" height="80" fill="#fbbf24"/><rect x="128" y="90" width="144" height="30" rx="8" fill="#fb7185"/><rect x="184" y="90" width="32" height="30" fill="#fbbf24"/><path d="M200 90 C160 40 120 52 138 78 C154 96 188 92 200 90 Z" fill="#fbbf24"/><path d="M200 90 C240 40 280 52 262 78 C246 96 212 92 200 90 Z" fill="#fbbf24"/><circle cx="200" cy="88" r="9" fill="#f59e0b"/><rect x="40" y="36" width="12" height="12" rx="3" fill="#fde047" transform="rotate(20 46 42)"/><rect x="330" y="52" width="10" height="10" rx="2" fill="#4ade80" transform="rotate(-15 335 57)"/><circle cx="70" cy="150" r="7" fill="#fb7185"/><circle cx="340" cy="150" r="8" fill="#38bdf8"/><rect x="300" y="30" width="10" height="10" rx="2" fill="#f472b6" transform="rotate(35 305 35)"/><circle cx="60" cy="90" r="6" fill="#a3e635"/><rect x="90" y="190" width="10" height="10" rx="2" fill="#fcd34d" transform="rotate(10 95 195)"/><circle cx="310" cy="195" r="6" fill="#fda4af"/><rect x="250" y="205" width="9" height="9" rx="2" fill="#67e8f9" transform="rotate(-20 254 209)"/></svg>
